<?xml version="1.0"?>

<!DOCTYPE svg PUBLIC '-//W3C//DTD SVG 1.0//EN' 'http://www.w3.org/TR/2001/REC-SVG-20010904/DTD/svg10.dtd'>
<svg fill-opacity="1" xmlns:xlink="http://www.w3.org/1999/xlink" color-rendering="auto" color-interpolation="auto" stroke="black" text-rendering="auto" stroke-linecap="square" width="600" stroke-miterlimit="10" stroke-opacity="1" shape-rendering="auto" fill="black" stroke-dasharray="none" font-weight="normal" stroke-width="1" height="370" xmlns="http://www.w3.org/2000/svg" font-family="&apos;Dialog&apos;" font-style="normal" stroke-linejoin="miter" font-size="12" stroke-dashoffset="0" image-rendering="auto">
  <!--Generated by Marvin with Batik SVG Generator
MolSource:
<?xml version="1.0" encoding="UTF-8"?><cml xmlns="http://www.chemaxon.com" xmlns:xsi="http://www.w3.org/2001/XMLSchema-instance" xsi:schemaLocation="http://www.chemaxon.com/marvin/schema/mrvSchema_14_11_17.xsd" version="ChemAxon file format v14.11.17, generated by v14.11.17.0">
<MDocument><MChemicalStruct><molecule molID="m1" absStereo="true"><propertyList><property dictRef="type" title="type"><scalar>systematic</scalar></property></propertyList><atomArray atomID="a1 a2 a3 a4 a5 a6 a7 a8 a9 a10 a11 a12 a13 a14 a15 a16 a17 a18 a19 a20 a21 a22 a23 a24 a25 a26 a27 a28 a29 a30 a31 a32 a33 a34 a35 a36 a37 a38 a39 a40 a41 a42 a43 a44 a45 a46 a47 a48 a49" elementType="N C C C C O O C O O C C C C C C C O O O C O C N C N C C C C N C C C C N C N C C O C C C C C C N N" formalCharge="0 0 0 0 0 -1 0 0 -1 0 0 0 0 0 0 0 0 0 -1 0 0 0 0 0 0 0 0 0 0 0 1 0 0 0 0 1 0 0 0 0 0 0 0 0 0 0 0 1 1" x2="0.16478789000497862 0.16478789000497862 -1.168891231823057 -2.502570353651092 -3.8362494754791276 -5.1699285973071625 -3.8362494754791285 1.4984670118330143 2.83214613366105 1.4984670118330143 -7.878749489784241 -9.2124188308325 -9.2124188308325 -7.878749489784241 -6.545080148735982 -6.545080148735982 -7.878749489784241 -6.545070367956205 -9.212428611612275 -5.211396136598752 -3.877717014770716 -3.877717014770716 -2.54403789294268 3.00459798699527 1.4645979869952708 0.9887118156578518 2.2345979869952712 3.4804841583326898 2.234597986995272 3.568277108823308 3.568277108823308 9.033750534057617 7.700081193009359 7.700081193009359 9.033750534057617 10.367419875105876 10.367419875105876 9.033750534057617 11.701098996933911 13.034778118761947 14.368457240589983 9.693750381469727 8.360081040421468 8.360081040421468 9.693750381469727 11.027419722517985 11.027419722517985 12.361103734655215 12.361103734655215" y2="17.31110896844855 15.771108968448551 15.001108968448552 15.771108968448551 15.001108968448552 15.771108968448551 13.461108968448553 15.001108968448552 15.771108968448551 13.461108968448551 24.887534682204507 24.117517741645464 22.577483860527387 21.807466919968345 22.577483860527387 24.117517741645464 26.427534682204506 27.197534682204505 27.197534682204505 24.88750927131936 24.117509271319356 22.577509271319357 24.88750927131936 20.241682098221037 20.24168209822104 21.706309133315575 22.611498421845987 21.706309133315575 24.151498421845986 24.921498421845985 26.461498421845985 19.566286627700112 18.796269687141073 17.25623580602299 16.48621886546395 17.25623580602299 18.796269687141073 14.946218865463951 16.48623580602299 17.25623580602299 16.48623580602299 26.20753342335441 25.43751648279537 23.897482601677286 23.127465661118247 23.897482601677286 25.43751648279537 26.207508012469262 23.127491072003394"></atomArray><bondArray><bond id="b1" atomRefs2="a2 a1" order="1"><bondStereo>H</bondStereo></bond><bond id="b2" atomRefs2="a2 a3" order="1"></bond><bond id="b3" atomRefs2="a3 a4" order="1"></bond><bond id="b4" atomRefs2="a4 a5" order="1"></bond><bond id="b5" atomRefs2="a5 a6" order="1"></bond><bond id="b6" atomRefs2="a5 a7" order="2"></bond><bond id="b7" atomRefs2="a2 a8" order="1"></bond><bond id="b8" atomRefs2="a8 a9" order="1"></bond><bond id="b9" atomRefs2="a8 a10" order="2"></bond><bond id="b10" atomRefs2="a11 a12" order="1"></bond><bond id="b11" atomRefs2="a12 a13" order="2"></bond><bond id="b12" atomRefs2="a13 a14" order="1"></bond><bond id="b13" atomRefs2="a14 a15" order="2"></bond><bond id="b14" atomRefs2="a15 a16" order="1"></bond><bond id="b15" atomRefs2="a11 a16" order="2"></bond><bond id="b16" atomRefs2="a11 a17" order="1"></bond><bond id="b17" atomRefs2="a17 a18" order="2"></bond><bond id="b18" atomRefs2="a17 a19" order="1"></bond><bond id="b19" atomRefs2="a16 a20" order="1"></bond><bond id="b20" atomRefs2="a20 a21" order="1"></bond><bond id="b21" atomRefs2="a21 a22" order="2"></bond><bond id="b22" atomRefs2="a21 a23" order="1"></bond><bond id="b23" atomRefs2="a24 a25" order="1"></bond><bond id="b24" atomRefs2="a25 a26" order="2"></bond><bond id="b25" atomRefs2="a27 a28" order="2"></bond><bond id="b26" atomRefs2="a24 a28" order="1"></bond><bond id="b27" atomRefs2="a26 a27" order="1"></bond><bond id="b28" atomRefs2="a27 a29" order="1"></bond><bond id="b29" atomRefs2="a29 a30" order="1"></bond><bond id="b30" atomRefs2="a30 a31" order="1"></bond><bond id="b31" atomRefs2="a32 a33" order="1"></bond><bond id="b32" atomRefs2="a33 a34" order="2"></bond><bond id="b33" atomRefs2="a34 a35" order="1"></bond><bond id="b34" atomRefs2="a35 a36" order="2"></bond><bond id="b35" atomRefs2="a36 a37" order="1"></bond><bond id="b36" atomRefs2="a32 a37" order="2"></bond><bond id="b37" atomRefs2="a35 a38" order="1"></bond><bond id="b38" atomRefs2="a36 a39" order="1"></bond><bond id="b39" atomRefs2="a39 a40" order="1"></bond><bond id="b40" atomRefs2="a40 a41" order="1"></bond><bond id="b41" atomRefs2="a42 a43" order="1"></bond><bond id="b42" atomRefs2="a43 a44" order="1"></bond><bond id="b43" atomRefs2="a44 a45" order="1"></bond><bond id="b44" atomRefs2="a45 a46" order="1"></bond><bond id="b45" atomRefs2="a46 a47" order="1"></bond><bond id="b46" atomRefs2="a42 a47" order="1"></bond><bond id="b47" atomRefs2="a47 a48" order="1"><bondStereo>W</bondStereo></bond><bond id="b48" atomRefs2="a46 a49" order="1"><bondStereo>H</bondStereo></bond></bondArray></molecule></MChemicalStruct></MDocument>
</cml>-->
  <defs id="genericDefs" />
  <g>
    <defs id="defs1">
      <clipPath clipPathUnits="userSpaceOnUse" id="clipPath1">
        <path d="M0 0 L600 0 L600 370 L0 370 L0 0 Z" />
      </clipPath>
      <clipPath clipPathUnits="userSpaceOnUse" id="clipPath2">
        <path d="M23.828779220581055 16.272205352783203 C25.89984703063965 16.272205352783203 27.578779220581055 17.95113754272461 27.578779220581055 20.022205352783203 L27.578779220581055 27.522205352783203 C27.578779220581055 29.593273162841797 25.89984703063965 31.272205352783203 23.828779220581055 31.272205352783203 L22.328779220581055 31.272205352783203 C20.25771141052246 31.272205352783203 18.578779220581055 29.593273162841797 18.578779220581055 27.522205352783203 L18.578779220581055 20.022205352783203 C18.578779220581055 17.95113754272461 20.25771141052246 16.272205352783203 22.328779220581055 16.272205352783203 ZM85.7991714477539 16.272205352783203 C87.8702392578125 16.272205352783203 89.5491714477539 17.95113754272461 89.5491714477539 20.022205352783203 L89.5491714477539 27.522205352783203 C89.5491714477539 29.593273162841797 87.8702392578125 31.272205352783203 85.7991714477539 31.272205352783203 L84.2991714477539 31.272205352783203 C82.22810363769531 31.272205352783203 80.5491714477539 29.593273162841797 80.5491714477539 27.522205352783203 L80.5491714477539 20.022205352783203 C80.5491714477539 17.95113754272461 82.22810363769531 16.272205352783203 84.2991714477539 16.272205352783203 ZM329.7612609863281 33.372440338134766 C331.83233642578125 33.372440338134766 333.5112609863281 35.05137252807617 333.5112609863281 37.122440338134766 L333.5112609863281 42.78749465942383 C333.5112609863281 40.99256896972656 334.8544006347656 39.53749465942383 336.5112609863281 39.53749465942383 C338.1681213378906 39.53749465942383 339.5112609863281 40.99256896972656 339.5112609863281 42.78749465942383 L339.5112609863281 49.28749465942383 C339.5112609863281 51.082420349121094 338.1681213378906 52.53749465942383 336.5112609863281 52.53749465942383 C334.8544006347656 52.53749465942383 333.5112609863281 51.082420349121094 333.5112609863281 49.28749465942383 L333.5112609863281 44.622440338134766 C333.5112609863281 46.69350814819336 331.83233642578125 48.372440338134766 329.7612609863281 48.372440338134766 L328.2612609863281 48.372440338134766 C326.190185546875 48.372440338134766 324.5112609863281 46.69350814819336 324.5112609863281 44.622440338134766 C324.5112609863281 46.69350814819336 322.83233642578125 48.372440338134766 320.7612609863281 48.372440338134766 L319.2612609863281 48.372440338134766 C317.190185546875 48.372440338134766 315.5112609863281 46.69350814819336 315.5112609863281 44.622440338134766 L315.5112609863281 37.122440338134766 C315.5112609863281 35.05137252807617 317.190185546875 33.372440338134766 319.2612609863281 33.372440338134766 L320.7612609863281 33.372440338134766 C322.83233642578125 33.372440338134766 324.5112609863281 35.05137252807617 324.5112609863281 37.122440338134766 C324.5112609863281 35.05137252807617 326.190185546875 33.372440338134766 328.2612609863281 33.372440338134766 ZM534.0438842773438 39.27336883544922 C536.1149291992188 39.27336883544922 537.7938842773438 40.952301025390625 537.7938842773438 43.02336883544922 L537.7938842773438 48.68842315673828 C537.7938842773438 46.893497467041016 539.1370239257812 45.43842315673828 540.7938842773438 45.43842315673828 C542.4507446289062 45.43842315673828 543.7938842773438 46.893497467041016 543.7938842773438 48.68842315673828 L543.7938842773438 55.18842315673828 C543.7938842773438 56.98334884643555 542.4507446289062 58.43842315673828 540.7938842773438 58.43842315673828 C539.1370239257812 58.43842315673828 537.7938842773438 56.98334884643555 537.7938842773438 55.18842315673828 L537.7938842773438 50.52336883544922 C537.7938842773438 52.59443664550781 536.1149291992188 54.27336883544922 534.0438842773438 54.27336883544922 L532.5438842773438 54.27336883544922 C530.4727783203125 54.27336883544922 528.7938842773438 52.59443664550781 528.7938842773438 50.52336883544922 C528.7938842773438 52.59443664550781 527.1149291992188 54.27336883544922 525.0438842773438 54.27336883544922 L523.5438842773438 54.27336883544922 C521.4727783203125 54.27336883544922 519.7938842773438 52.59443664550781 519.7938842773438 50.52336883544922 L519.7938842773438 43.02336883544922 C519.7938842773438 40.952301025390625 521.4727783203125 39.27336883544922 523.5438842773438 39.27336883544922 L525.0438842773438 39.27336883544922 C527.1149291992188 39.27336883544922 528.7938842773438 40.952301025390625 528.7938842773438 43.02336883544922 C528.7938842773438 40.952301025390625 530.4727783203125 39.27336883544922 532.5438842773438 39.27336883544922 ZM116.78424835205078 69.94072723388672 C118.85531616210938 69.94072723388672 120.53424835205078 71.61965942382812 120.53424835205078 73.69072723388672 L120.53424835205078 81.19072723388672 C120.53424835205078 83.26179504394531 118.85531616210938 84.94072723388672 116.78424835205078 84.94072723388672 L115.28424835205078 84.94072723388672 C113.21318054199219 84.94072723388672 111.53424835205078 83.26179504394531 111.53424835205078 81.19072723388672 L111.53424835205078 73.69072723388672 C111.53424835205078 71.61965942382812 113.21318054199219 69.94072723388672 115.28424835205078 69.94072723388672 ZM187.254638671875 69.94072723388672 C189.32571411132812 69.94072723388672 191.004638671875 71.61965942382812 191.004638671875 73.69072723388672 L191.004638671875 79.35578155517578 C191.004638671875 77.56085968017578 192.34779357910156 76.10578155517578 194.004638671875 76.10578155517578 C195.6614990234375 76.10578155517578 197.004638671875 77.56085968017578 197.004638671875 79.35578155517578 L197.004638671875 85.85578155517578 C197.004638671875 87.65071105957031 195.6614990234375 89.10578155517578 194.004638671875 89.10578155517578 C192.34779357910156 89.10578155517578 191.004638671875 87.65071105957031 191.004638671875 85.85578155517578 L191.004638671875 81.19072723388672 C191.004638671875 83.26179504394531 189.32571411132812 84.94072723388672 187.254638671875 84.94072723388672 L185.754638671875 84.94072723388672 C183.68357849121094 84.94072723388672 182.004638671875 83.26179504394531 182.004638671875 81.19072723388672 C182.004638671875 83.26179504394531 180.32571411132812 84.94072723388672 178.254638671875 84.94072723388672 L177.754638671875 84.94072723388672 C175.68357849121094 84.94072723388672 174.004638671875 83.26179504394531 174.004638671875 81.19072723388672 L174.004638671875 73.69072723388672 C174.004638671875 71.61965942382812 175.68357849121094 69.94072723388672 177.754638671875 69.94072723388672 L178.254638671875 69.94072723388672 C180.32571411132812 69.94072723388672 182.004638671875 71.61965942382812 182.004638671875 73.69072723388672 C182.004638671875 71.61965942382812 183.68357849121094 69.94072723388672 185.754638671875 69.94072723388672 ZM534.0438842773438 110.83100128173828 C536.1149291992188 110.83100128173828 537.7938842773438 112.50993347167969 537.7938842773438 114.58100128173828 L537.7938842773438 120.24605560302734 C537.7938842773438 118.45113372802734 539.1370239257812 116.99605560302734 540.7938842773438 116.99605560302734 C542.4507446289062 116.99605560302734 543.7938842773438 118.45113372802734 543.7938842773438 120.24605560302734 L543.7938842773438 126.74605560302734 C543.7938842773438 128.54098510742188 542.4507446289062 129.99606323242188 540.7938842773438 129.99606323242188 C539.1370239257812 129.99606323242188 537.7938842773438 128.54098510742188 537.7938842773438 126.74605560302734 L537.7938842773438 122.08100128173828 C537.7938842773438 124.15206909179688 536.1149291992188 125.83100128173828 534.0438842773438 125.83100128173828 L532.5438842773438 125.83100128173828 C530.4727783203125 125.83100128173828 528.7938842773438 124.15206909179688 528.7938842773438 122.08100128173828 C528.7938842773438 124.15206909179688 527.1149291992188 125.83100128173828 525.0438842773438 125.83100128173828 L523.5438842773438 125.83100128173828 C521.4727783203125 125.83100128173828 519.7938842773438 124.15206909179688 519.7938842773438 122.08100128173828 L519.7938842773438 114.58100128173828 C519.7938842773438 112.50993347167969 521.4727783203125 110.83100128173828 523.5438842773438 110.83100128173828 L525.0438842773438 110.83100128173828 C527.1149291992188 110.83100128173828 528.7938842773438 112.50993347167969 528.7938842773438 114.58100128173828 C528.7938842773438 112.50993347167969 530.4727783203125 110.83100128173828 532.5438842773438 110.83100128173828 ZM147.76943969726562 123.60865783691406 C149.84051513671875 123.60865783691406 151.51943969726562 125.28759002685547 151.51943969726562 127.35865783691406 L151.51943969726562 134.85865783691406 C151.51943969726562 136.9297332763672 149.84051513671875 138.60865783691406 147.76943969726562 138.60865783691406 L146.26943969726562 138.60865783691406 C144.19837951660156 138.60865783691406 142.51943969726562 136.9297332763672 142.51943969726562 134.85865783691406 L142.51943969726562 127.35865783691406 C142.51943969726562 125.28759002685547 144.19837951660156 123.60865783691406 146.26943969726562 123.60865783691406 ZM260.83056640625 143.84913635253906 C262.9016418457031 143.84913635253906 264.58056640625 145.528076171875 264.58056640625 147.59913635253906 L264.58056640625 155.09913635253906 C264.58056640625 157.1702117919922 262.9016418457031 158.84913635253906 260.83056640625 158.84913635253906 L259.33056640625 158.84913635253906 C257.2594909667969 158.84913635253906 255.58056640625 157.1702117919922 255.58056640625 155.09913635253906 L255.58056640625 147.59913635253906 C255.58056640625 145.528076171875 257.2594909667969 143.84913635253906 259.33056640625 143.84913635253906 ZM316.6653747558594 177.8766326904297 C318.7364501953125 177.8766326904297 320.4153747558594 179.55555725097656 320.4153747558594 181.6266326904297 L320.4153747558594 189.1266326904297 C320.4153747558594 191.19769287109375 318.7364501953125 192.8766326904297 316.6653747558594 192.8766326904297 L315.1653747558594 192.8766326904297 C313.0943298339844 192.8766326904297 311.4153747558594 191.19769287109375 311.4153747558594 189.1266326904297 C311.4153747558594 191.19769287109375 309.7364501953125 192.8766326904297 307.6653747558594 192.8766326904297 L306.1653747558594 192.8766326904297 C304.0943298339844 192.8766326904297 302.4153747558594 191.19769287109375 302.4153747558594 189.1266326904297 L302.4153747558594 181.6266326904297 C302.4153747558594 179.55555725097656 304.0943298339844 177.8766326904297 306.1653747558594 177.8766326904297 L307.6653747558594 177.8766326904297 C309.7364501953125 177.8766326904297 311.4153747558594 179.55555725097656 311.4153747558594 181.6266326904297 C311.4153747558594 179.55555725097656 313.0943298339844 177.8766326904297 315.1653747558594 177.8766326904297 ZM478.7248840332031 247.23712158203125 C480.7959289550781 247.23712158203125 482.4748840332031 248.91604614257812 482.4748840332031 250.98712158203125 L482.4748840332031 258.48712158203125 C482.4748840332031 260.5581970214844 480.7959289550781 262.23712158203125 478.7248840332031 262.23712158203125 L477.2248840332031 262.23712158203125 C475.15380859375 262.23712158203125 473.4748840332031 260.5581970214844 473.4748840332031 258.48712158203125 L473.4748840332031 250.98712158203125 C473.4748840332031 248.91604614257812 475.15380859375 247.23712158203125 477.2248840332031 247.23712158203125 ZM250.68844604492188 245.96226501464844 C252.75950622558594 245.96226501464844 254.43844604492188 247.6411895751953 254.43844604492188 249.71226501464844 L254.43844604492188 255.3773193359375 C254.43844604492188 253.58238220214844 255.78158569335938 252.1273193359375 257.4384460449219 252.1273193359375 C259.0953063964844 252.1273193359375 260.4384460449219 253.58238220214844 260.4384460449219 255.3773193359375 L260.4384460449219 261.8773193359375 C260.4384460449219 263.6722412109375 259.0953063964844 265.1273193359375 257.4384460449219 265.1273193359375 C255.78158569335938 265.1273193359375 254.43844604492188 263.6722412109375 254.43844604492188 261.8773193359375 L254.43844604492188 257.2122497558594 C254.43844604492188 259.2833251953125 252.75950622558594 260.9622497558594 250.68844604492188 260.9622497558594 L249.18844604492188 260.9622497558594 C247.11737060546875 260.9622497558594 245.43844604492188 259.2833251953125 245.43844604492188 257.2122497558594 C245.43844604492188 259.2833251953125 243.75950622558594 260.9622497558594 241.68844604492188 260.9622497558594 L240.18844604492188 260.9622497558594 C238.11737060546875 260.9622497558594 236.43844604492188 259.2833251953125 236.43844604492188 257.2122497558594 L236.43844604492188 249.71226501464844 C236.43844604492188 247.6411895751953 238.11737060546875 245.96226501464844 240.18844604492188 245.96226501464844 L241.68844604492188 245.96226501464844 C243.75950622558594 245.96226501464844 245.43844604492188 247.6411895751953 245.43844604492188 249.71226501464844 C245.43844604492188 247.6411895751953 247.11737060546875 245.96226501464844 249.18844604492188 245.96226501464844 ZM580.6804809570312 265.1264343261719 C582.7515258789062 265.1264343261719 584.4304809570312 266.80535888671875 584.4304809570312 268.8764343261719 L584.4304809570312 276.3764343261719 C584.4304809570312 278.447509765625 582.7515258789062 280.1264343261719 580.6804809570312 280.1264343261719 L579.1804809570312 280.1264343261719 C577.109375 280.1264343261719 575.4304809570312 278.447509765625 575.4304809570312 276.3764343261719 C575.4304809570312 278.447509765625 573.7515258789062 280.1264343261719 571.6804809570312 280.1264343261719 L570.1804809570312 280.1264343261719 C568.109375 280.1264343261719 566.4304809570312 278.447509765625 566.4304809570312 276.3764343261719 L566.4304809570312 268.8764343261719 C566.4304809570312 266.80535888671875 568.109375 265.1264343261719 570.1804809570312 265.1264343261719 L571.6804809570312 265.1264343261719 C573.7515258789062 265.1264343261719 575.4304809570312 266.80535888671875 575.4304809570312 268.8764343261719 C575.4304809570312 266.80535888671875 577.109375 265.1264343261719 579.1804809570312 265.1264343261719 ZM117.7476577758789 281.7408752441406 C119.8187255859375 281.7408752441406 121.4976577758789 283.4197998046875 121.4976577758789 285.4908752441406 L121.4976577758789 292.9908752441406 C121.4976577758789 295.06195068359375 119.8187255859375 296.7408752441406 117.7476577758789 296.7408752441406 L116.2476577758789 296.7408752441406 C114.17658996582031 296.7408752441406 112.4976577758789 295.06195068359375 112.4976577758789 292.9908752441406 L112.4976577758789 285.4908752441406 C112.4976577758789 283.4197998046875 114.17658996582031 281.7408752441406 116.2476577758789 281.7408752441406 ZM303.6588439941406 281.7408752441406 C305.7298889160156 281.7408752441406 307.4088439941406 283.4197998046875 307.4088439941406 285.4908752441406 L307.4088439941406 292.9908752441406 C307.4088439941406 295.06195068359375 305.7298889160156 296.7408752441406 303.6588439941406 296.7408752441406 L302.1588439941406 296.7408752441406 C300.0877685546875 296.7408752441406 298.4088439941406 295.06195068359375 298.4088439941406 292.9908752441406 L298.4088439941406 285.4908752441406 C298.4088439941406 283.4197998046875 300.0877685546875 281.7408752441406 302.1588439941406 281.7408752441406 ZM456.7398986816406 300.90545654296875 C458.81097412109375 300.90545654296875 460.4898986816406 302.5843811035156 460.4898986816406 304.65545654296875 L460.4898986816406 310.32049560546875 C460.4898986816406 308.52557373046875 461.8330383300781 307.07049560546875 463.4898986816406 307.07049560546875 C465.1467590332031 307.07049560546875 466.4898986816406 308.52557373046875 466.4898986816406 310.32049560546875 L466.4898986816406 316.82049560546875 C466.4898986816406 318.61541748046875 465.1467590332031 320.07049560546875 463.4898986816406 320.07049560546875 C461.8330383300781 320.07049560546875 460.4898986816406 318.61541748046875 460.4898986816406 316.82049560546875 L460.4898986816406 312.15545654296875 C460.4898986816406 314.22650146484375 458.81097412109375 315.90545654296875 456.7398986816406 315.90545654296875 L455.2398986816406 315.90545654296875 C453.1688232421875 315.90545654296875 451.4898986816406 314.22650146484375 451.4898986816406 312.15545654296875 C451.4898986816406 314.22650146484375 449.81097412109375 315.90545654296875 447.7398986816406 315.90545654296875 L446.2398986816406 315.90545654296875 C444.1688232421875 315.90545654296875 442.4898986816406 314.22650146484375 442.4898986816406 312.15545654296875 L442.4898986816406 304.65545654296875 C442.4898986816406 302.5843811035156 444.1688232421875 300.90545654296875 446.2398986816406 300.90545654296875 L447.7398986816406 300.90545654296875 C449.81097412109375 300.90545654296875 451.4898986816406 302.5843811035156 451.4898986816406 304.65545654296875 C451.4898986816406 302.5843811035156 453.1688232421875 300.90545654296875 455.2398986816406 300.90545654296875 ZM148.73284912109375 335.4088134765625 C150.80392456054688 335.4088134765625 152.48284912109375 337.0877380371094 152.48284912109375 339.1588134765625 L152.48284912109375 346.6588134765625 C152.48284912109375 348.7298889160156 150.80392456054688 350.4088134765625 148.73284912109375 350.4088134765625 L147.23284912109375 350.4088134765625 C145.1617889404297 350.4088134765625 143.48284912109375 348.7298889160156 143.48284912109375 346.6588134765625 L143.48284912109375 339.1588134765625 C143.48284912109375 337.0877380371094 145.1617889404297 335.4088134765625 147.23284912109375 335.4088134765625 ZM272.67364501953125 335.4088134765625 C274.74468994140625 335.4088134765625 276.42364501953125 337.0877380371094 276.42364501953125 339.1588134765625 L276.42364501953125 346.6588134765625 C276.42364501953125 348.7298889160156 274.74468994140625 350.4088134765625 272.67364501953125 350.4088134765625 L271.17364501953125 350.4088134765625 C269.1025695800781 350.4088134765625 267.42364501953125 348.7298889160156 267.42364501953125 346.6588134765625 L267.42364501953125 339.1588134765625 C267.42364501953125 337.0877380371094 269.1025695800781 335.4088134765625 271.17364501953125 335.4088134765625 ZM0 0 L0 370 L600 370 L600 0 Z" />
      </clipPath>
    </defs>
    <g fill="rgb(51,51,153)" text-rendering="optimizeLegibility" shape-rendering="geometricPrecision" font-family="sans-serif" stroke="rgb(51,51,153)">
      <text xml:space="preserve" x="236" y="257" clip-path="url(#clipPath1)" stroke="none">N
      </text>
      <text xml:space="preserve" x="245" y="257" clip-path="url(#clipPath1)" stroke="none">H
      </text>
      <text font-size="10" x="254" y="262" clip-path="url(#clipPath1)" stroke="none" xml:space="preserve">2
      </text>
    </g>
    <g fill="red" text-rendering="optimizeLegibility" shape-rendering="geometricPrecision" font-family="sans-serif" stroke="red">
      <text xml:space="preserve" x="112" y="293" clip-path="url(#clipPath1)" stroke="none">O
      </text>
    </g>
    <g font-size="10" fill="red" text-rendering="optimizeLegibility" font-family="sans-serif" shape-rendering="geometricPrecision" stroke="red">
      <text xml:space="preserve" x="123" y="283" clip-path="url(#clipPath1)" stroke="none">–
      </text>
      <text font-size="12" x="143" y="347" clip-path="url(#clipPath1)" stroke="none" xml:space="preserve">O
      </text>
    </g>
    <g fill="red" text-rendering="optimizeLegibility" shape-rendering="geometricPrecision" font-family="sans-serif" stroke="red">
      <text xml:space="preserve" x="298" y="293" clip-path="url(#clipPath1)" stroke="none">O
      </text>
    </g>
    <g font-size="10" fill="red" text-rendering="optimizeLegibility" font-family="sans-serif" shape-rendering="geometricPrecision" stroke="red">
      <text xml:space="preserve" x="309" y="283" clip-path="url(#clipPath1)" stroke="none">–
      </text>
      <text font-size="12" x="267" y="347" clip-path="url(#clipPath1)" stroke="none" xml:space="preserve">O
      </text>
    </g>
    <g fill="red" text-rendering="optimizeLegibility" shape-rendering="geometricPrecision" font-family="sans-serif" stroke="red">
      <text xml:space="preserve" x="80" y="28" clip-path="url(#clipPath1)" stroke="none">O
      </text>
    </g>
    <g fill="red" text-rendering="optimizeLegibility" shape-rendering="geometricPrecision" font-family="sans-serif" stroke="red">
      <text xml:space="preserve" x="18" y="28" clip-path="url(#clipPath1)" stroke="none">O
      </text>
    </g>
    <g font-size="10" fill="red" text-rendering="optimizeLegibility" font-family="sans-serif" shape-rendering="geometricPrecision" stroke="red">
      <text xml:space="preserve" x="29" y="18" clip-path="url(#clipPath1)" stroke="none">–
      </text>
      <text font-size="12" x="111" y="81" clip-path="url(#clipPath1)" stroke="none" xml:space="preserve">O
      </text>
    </g>
    <g fill="red" text-rendering="optimizeLegibility" shape-rendering="geometricPrecision" font-family="sans-serif" stroke="red">
      <text xml:space="preserve" x="142" y="135" clip-path="url(#clipPath1)" stroke="none">O
      </text>
    </g>
    <g text-rendering="optimizeLegibility" shape-rendering="geometricPrecision" font-family="sans-serif">
      <text xml:space="preserve" x="174" y="81" clip-path="url(#clipPath1)" stroke="none">C
      </text>
      <text xml:space="preserve" x="182" y="81" clip-path="url(#clipPath1)" stroke="none">H
      </text>
      <text font-size="10" x="191" y="86" clip-path="url(#clipPath1)" stroke="none" xml:space="preserve">3
      </text>
    </g>
    <g fill="rgb(51,51,153)" text-rendering="optimizeLegibility" shape-rendering="geometricPrecision" font-family="sans-serif" stroke="rgb(51,51,153)">
      <text xml:space="preserve" x="302" y="189" clip-path="url(#clipPath1)" stroke="none">N
      </text>
      <text xml:space="preserve" x="311" y="189" clip-path="url(#clipPath1)" stroke="none">H
      </text>
    </g>
    <g fill="rgb(51,51,153)" text-rendering="optimizeLegibility" shape-rendering="geometricPrecision" font-family="sans-serif" stroke="rgb(51,51,153)">
      <text xml:space="preserve" x="255" y="155" clip-path="url(#clipPath1)" stroke="none">N
      </text>
    </g>
    <g fill="rgb(51,51,153)" text-rendering="optimizeLegibility" shape-rendering="geometricPrecision" font-family="sans-serif" stroke="rgb(51,51,153)">
      <text xml:space="preserve" x="315" y="45" clip-path="url(#clipPath1)" stroke="none">N
      </text>
      <text xml:space="preserve" x="324" y="45" clip-path="url(#clipPath1)" stroke="none">H
      </text>
      <text font-size="10" x="333" y="49" clip-path="url(#clipPath1)" stroke="none" xml:space="preserve">3
      </text>
    </g>
    <g font-size="10" fill="rgb(51,51,153)" text-rendering="optimizeLegibility" font-family="sans-serif" shape-rendering="geometricPrecision" stroke="rgb(51,51,153)">
      <text xml:space="preserve" x="326" y="35" clip-path="url(#clipPath1)" stroke="none">+
      </text>
      <text font-size="12" x="473" y="259" clip-path="url(#clipPath1)" stroke="none" xml:space="preserve">N
      </text>
    </g>
    <g font-size="10" fill="rgb(51,51,153)" text-rendering="optimizeLegibility" font-family="sans-serif" shape-rendering="geometricPrecision" stroke="rgb(51,51,153)">
      <text xml:space="preserve" x="484" y="249" clip-path="url(#clipPath1)" stroke="none">+
      </text>
      <text font-size="12" x="442" y="312" clip-path="url(#clipPath1)" stroke="none" xml:space="preserve">N
      </text>
      <text font-size="12" x="451" y="312" clip-path="url(#clipPath1)" stroke="none" xml:space="preserve">H
      </text>
      <text xml:space="preserve" x="460" y="317" clip-path="url(#clipPath1)" stroke="none">2
      </text>
    </g>
    <g fill="red" text-rendering="optimizeLegibility" shape-rendering="geometricPrecision" font-family="sans-serif" stroke="red">
      <text xml:space="preserve" x="566" y="277" clip-path="url(#clipPath1)" stroke="none">O
      </text>
      <text xml:space="preserve" x="575" y="277" clip-path="url(#clipPath1)" stroke="none">H
      </text>
    </g>
    <g fill="rgb(51,51,153)" text-rendering="optimizeLegibility" shape-rendering="geometricPrecision" font-family="sans-serif" stroke="rgb(51,51,153)">
      <text xml:space="preserve" x="519" y="51" clip-path="url(#clipPath1)" stroke="none">N
      </text>
      <text xml:space="preserve" x="528" y="51" clip-path="url(#clipPath1)" stroke="none">H
      </text>
      <text font-size="10" x="537" y="55" clip-path="url(#clipPath1)" stroke="none" xml:space="preserve">3
      </text>
    </g>
    <g font-size="10" fill="rgb(51,51,153)" text-rendering="optimizeLegibility" font-family="sans-serif" shape-rendering="geometricPrecision" stroke="rgb(51,51,153)">
      <text xml:space="preserve" x="530" y="41" clip-path="url(#clipPath1)" stroke="none">+
      </text>
      <text font-size="12" x="519" y="122" clip-path="url(#clipPath1)" stroke="none" xml:space="preserve">N
      </text>
      <text font-size="12" x="528" y="122" clip-path="url(#clipPath1)" stroke="none" xml:space="preserve">H
      </text>
      <text xml:space="preserve" x="537" y="126" clip-path="url(#clipPath1)" stroke="none">3
      </text>
    </g>
    <g font-size="10" fill="rgb(51,51,153)" text-rendering="optimizeLegibility" font-family="sans-serif" shape-rendering="geometricPrecision" stroke="rgb(51,51,153)">
      <text xml:space="preserve" x="530" y="112" clip-path="url(#clipPath1)" stroke="none">+
      </text>
    </g>
    <g font-size="10" stroke-linecap="round" text-rendering="optimizeLegibility" font-family="sans-serif" stroke-linejoin="bevel" shape-rendering="geometricPrecision" stroke-width="1.4869037866592407">
      <line clip-path="url(#clipPath2)" fill="none" x1="238.06554396042327" x2="243.81133794133677" y1="261.2408807240627" y2="261.2408807240627" />
      <line clip-path="url(#clipPath2)" fill="none" x1="238.47595781620282" x2="243.40092408555722" y1="265.2408807240627" y2="265.2408807240627" />
      <line clip-path="url(#clipPath2)" fill="none" x1="238.88637167198235" x2="242.9905102297777" y1="269.2408807240627" y2="269.2408807240627" />
      <line clip-path="url(#clipPath2)" fill="none" x1="239.29678552776187" x2="242.58009637399817" y1="273.2408807240627" y2="273.2408807240627" />
      <line clip-path="url(#clipPath2)" fill="none" x1="239.70719938354142" x2="242.16968251821862" y1="277.2408807240627" y2="277.2408807240627" />
      <line clip-path="url(#clipPath2)" fill="none" x1="240.11761323932095" x2="241.7592686624391" y1="281.2408807240627" y2="281.2408807240627" />
      <line clip-path="url(#clipPath2)" fill="none" x1="240.5280270951005" x2="241.34885480665955" y1="285.2408807240627" y2="285.2408807240627" />
      <line clip-path="url(#clipPath2)" fill="none" x1="240.93844095088002" x2="240.93844095088002" y1="289.2408807240627" y2="289.2408807240627" />
      <line clip-path="url(#clipPath2)" fill="none" x1="238.06554396042327" x2="243.81133794133677" y1="261.2408807240627" y2="261.2408807240627" />
      <line clip-path="url(#clipPath2)" fill="none" x1="238.47595781620282" x2="243.40092408555722" y1="265.2408807240627" y2="265.2408807240627" />
      <line clip-path="url(#clipPath2)" fill="none" x1="238.88637167198235" x2="242.9905102297777" y1="269.2408807240627" y2="269.2408807240627" />
      <line clip-path="url(#clipPath2)" fill="none" x1="239.29678552776187" x2="242.58009637399817" y1="273.2408807240627" y2="273.2408807240627" />
      <line clip-path="url(#clipPath2)" fill="none" x1="239.70719938354142" x2="242.16968251821862" y1="277.2408807240627" y2="277.2408807240627" />
      <line clip-path="url(#clipPath2)" fill="none" x1="240.11761323932095" x2="241.7592686624391" y1="281.2408807240627" y2="281.2408807240627" />
      <line clip-path="url(#clipPath2)" fill="none" x1="240.5280270951005" x2="241.34885480665955" y1="285.2408807240627" y2="285.2408807240627" />
      <line clip-path="url(#clipPath2)" fill="none" x1="240.93844095088002" x2="240.93844095088002" y1="289.2408807240627" y2="289.2408807240627" />
      <line clip-path="url(#clipPath2)" fill="none" x1="240.93844095088002" x2="209.9532459234339" y1="289.2408807240627" y2="307.13019141405175" />
      <line clip-path="url(#clipPath2)" fill="none" x1="209.9532459234339" x2="178.96805089598783" y1="307.13019141405175" y2="289.2408807240627" />
      <line clip-path="url(#clipPath2)" fill="none" x1="178.96805089598783" x2="147.98285586854172" y1="289.2408807240627" y2="307.13019141405175" />
      <line clip-path="url(#clipPath2)" fill="none" x1="147.98285586854172" x2="135.90326563400907" y1="307.13019141405175" y2="300.15603674044394" />
      <line clip-path="url(#clipPath2)" fill="none" x1="135.90326563400907" x2="123.82367539947643" y1="300.15603674044394" y2="293.1818820668361" stroke="red" />
      <line clip-path="url(#clipPath2)" fill="none" x1="151.20293179273975" x2="151.20293179273975" y1="305.27107971240497" y2="320.148944910444" />
      <line clip-path="url(#clipPath2)" fill="none" x1="144.7627799443437" x2="144.7627799443437" y1="305.27107971240497" y2="320.148944910444" />
      <line clip-path="url(#clipPath2)" fill="none" x1="151.20293179273975" x2="151.20293179273975" y1="320.148944910444" y2="335.026810108483" stroke="red" />
      <line clip-path="url(#clipPath2)" fill="none" x1="144.7627799443437" x2="144.7627799443437" y1="320.148944910444" y2="335.026810108483" stroke="red" />
      <line clip-path="url(#clipPath2)" fill="none" x1="240.93844095088002" x2="271.92363597832616" y1="289.2408807240627" y2="307.13019141405175" />
      <line clip-path="url(#clipPath2)" fill="none" x1="271.92363597832616" x2="284.0032262128588" y1="307.13019141405175" y2="300.15603674044394" />
      <line clip-path="url(#clipPath2)" fill="none" x1="284.0032262128588" x2="296.08281644739145" y1="300.15603674044394" y2="293.1818820668361" stroke="red" />
      <line clip-path="url(#clipPath2)" fill="none" x1="275.1437119025242" x2="275.1437119025242" y1="305.271079712405" y2="320.148944910444" />
      <line clip-path="url(#clipPath2)" fill="none" x1="268.7035600541281" x2="268.7035600541281" y1="305.27107971240497" y2="320.148944910444" />
      <line clip-path="url(#clipPath2)" fill="none" x1="275.1437119025242" x2="275.1437119025242" y1="320.148944910444" y2="335.02681010848306" stroke="red" />
      <line clip-path="url(#clipPath2)" fill="none" x1="268.7035600541281" x2="268.7035600541281" y1="320.148944910444" y2="335.02681010848306" stroke="red" />
      <line clip-path="url(#clipPath2)" fill="none" x1="54.06397441375029" x2="23.079006621899282" y1="77.44013789862686" y2="95.32984216643933" />
      <line clip-path="url(#clipPath2)" fill="none" x1="23.079006621899282" x2="23.079006621899282" y1="95.32984216643933" y2="131.10925070206395" />
      <line clip-path="url(#clipPath2)" fill="none" x1="29.519158470295345" x2="29.519158470295345" y1="99.04801103398992" y2="127.39108183451336" />
      <line clip-path="url(#clipPath2)" fill="none" x1="23.079006621899282" x2="54.06397441375029" y1="131.10925070206395" y2="148.9989549698763" />
      <line clip-path="url(#clipPath2)" fill="none" x1="54.06397441375029" x2="85.04894220560132" y1="148.9989549698763" y2="131.10925070206395" />
      <line clip-path="url(#clipPath2)" fill="none" x1="54.063974413750294" x2="78.60879035720527" y1="141.56245362634647" y2="127.39108183451334" />
      <line clip-path="url(#clipPath2)" fill="none" x1="85.04894220560132" x2="85.04894220560132" y1="131.10925070206395" y2="95.32984216643933" />
      <line clip-path="url(#clipPath2)" fill="none" x1="54.06397441375029" x2="85.04894220560132" y1="77.44013789862686" y2="95.32984216643933" />
      <line clip-path="url(#clipPath2)" fill="none" x1="54.063974413750294" x2="78.60879035720527" y1="84.87663924215671" y2="99.04801103398991" />
      <line clip-path="url(#clipPath2)" fill="none" x1="54.06397441375029" x2="54.06397441375029" y1="77.44013789862686" y2="41.661516518648796" />
      <line clip-path="url(#clipPath2)" fill="none" x1="50.84389848955225" x2="63.72850770513443" y1="39.80240481700202" y2="32.36347221798251" />
      <line clip-path="url(#clipPath2)" fill="none" x1="54.06397441375029" x2="66.94858362933246" y1="45.37973992194233" y2="37.940807322922815" />
      <line clip-path="url(#clipPath2)" fill="none" x1="63.72850770513443" x2="76.61311692071662" y1="32.36347221798251" y2="24.924539618963" stroke="red" />
      <line clip-path="url(#clipPath2)" fill="none" x1="66.94858362933246" x2="79.83319284491465" y1="37.940807322922815" y2="30.501874723903295" stroke="red" />
      <line clip-path="url(#clipPath2)" fill="none" x1="54.06397441375029" x2="41.98438417921764" y1="41.661516518648796" y2="34.687361845040975" />
      <line clip-path="url(#clipPath2)" fill="none" x1="41.98438417921764" x2="29.904793944684997" y1="34.687361845040975" y2="27.713207171433154" stroke="red" />
      <line clip-path="url(#clipPath2)" fill="none" x1="85.04894220560132" x2="97.12857673334533" y1="95.32984216643933" y2="88.35576421148653" />
      <line clip-path="url(#clipPath2)" fill="none" x1="97.12857673334533" x2="109.20821126108933" y1="88.35576421148653" y2="81.38168625653373" stroke="red" />
      <line clip-path="url(#clipPath2)" fill="none" x1="122.86026540735097" x2="134.93985564188364" y1="81.38172960921759" y2="88.35588428282546" stroke="red" />
      <line clip-path="url(#clipPath2)" fill="none" x1="134.93985564188364" x2="147.0194458764163" y1="88.35588428282546" y2="95.33003895643333" />
      <line clip-path="url(#clipPath2)" fill="none" x1="150.2395218006144" x2="150.2395218006144" y1="93.47092725478655" y2="108.34879245282553" />
      <line clip-path="url(#clipPath2)" fill="none" x1="143.7993699522183" x2="143.7993699522183" y1="93.47092725478655" y2="108.34879245282553" />
      <line clip-path="url(#clipPath2)" fill="none" x1="150.2395218006144" x2="150.23952180061437" y1="108.34879245282553" y2="123.22665765086451" stroke="red" />
      <line clip-path="url(#clipPath2)" fill="none" x1="143.7993699522183" x2="143.7993699522183" y1="108.34879245282553" y2="123.22665765086451" stroke="red" />
      <line clip-path="url(#clipPath2)" fill="none" x1="147.01944587641634" x2="171.1786263454817" y1="95.33003895643333" y2="81.38172960921759" />
      <line clip-path="url(#clipPath2)" fill="none" x1="299.03337998692706" x2="285.08507063971143" y1="185.376631787937" y2="185.37663178793696" stroke="rgb(51,51,153)" />
      <line clip-path="url(#clipPath2)" fill="none" x1="285.08507063971143" x2="271.1367612924958" y1="185.37663178793696" y2="185.37663178793693" />
      <line clip-path="url(#clipPath2)" fill="none" x1="271.1367612924958" x2="266.8264966614073" y1="185.3766317879369" y2="172.11100129196694" />
      <line clip-path="url(#clipPath2)" fill="none" x1="275.81580549716784" x2="272.228492954417" y1="178.93647993954085" y2="167.8958671840141" />
      <line clip-path="url(#clipPath2)" fill="none" x1="266.8264966614073" x2="262.51623203031875" y1="172.11100129196694" y2="158.84537079599696" stroke="rgb(51,51,153)" />
      <line clip-path="url(#clipPath2)" fill="none" x1="272.228492954417" x2="268.6411804116661" y1="167.8958671840141" y2="156.85525442848734" stroke="rgb(51,51,153)" />
      <line clip-path="url(#clipPath2)" fill="none" x1="289.0260719824849" x2="317.971584714194" y1="130.31899478594426" y2="151.3491407804517" />
      <line clip-path="url(#clipPath2)" fill="none" x1="289.0260719824849" x2="310.4007321561714" y1="138.27946025598274" y2="153.80905989382853" />
      <line clip-path="url(#clipPath2)" fill="none" x1="309.3510554520169" x2="313.66132008310547" y1="177.88040177239176" y2="164.61477127642172" stroke="rgb(51,51,153)" />
      <line clip-path="url(#clipPath2)" fill="none" x1="313.66132008310547" x2="317.971584714194" y1="164.61477127642172" y2="151.34914078045168" />
      <line clip-path="url(#clipPath2)" fill="none" x1="266.45723337309215" x2="277.7416526777885" y1="146.71621584335756" y2="138.5176053146509" stroke="rgb(51,51,153)" />
      <line clip-path="url(#clipPath2)" fill="none" x1="277.7416526777885" x2="289.0260719824849" y1="138.5176053146509" y2="130.31899478594423" />
      <line clip-path="url(#clipPath2)" fill="none" x1="289.0260719824849" x2="289.0260719824849" y1="130.31899478594426" y2="94.54037340596619" />
      <line clip-path="url(#clipPath2)" fill="none" x1="289.0260719824849" x2="320.011267009931" y1="94.54037340596619" y2="76.6510627159771" />
      <line clip-path="url(#clipPath2)" fill="none" x1="320.011267009931" x2="320.011267009931" y1="76.6510627159771" y2="62.702753368761506" />
      <line clip-path="url(#clipPath2)" fill="none" x1="320.011267009931" x2="320.011267009931" y1="62.702753368761506" y2="48.75444402154591" stroke="rgb(51,51,153)" />
      <line clip-path="url(#clipPath2)" fill="none" x1="446.98990619421056" x2="416.0049384023596" y1="201.0680076460671" y2="218.95771191387945" />
      <line clip-path="url(#clipPath2)" fill="none" x1="416.0049384023596" x2="416.0049384023596" y1="218.95771191387945" y2="254.73712044950423" />
      <line clip-path="url(#clipPath2)" fill="none" x1="422.44509025075564" x2="422.44509025075564" y1="222.67588078143004" y2="251.01895158195364" />
      <line clip-path="url(#clipPath2)" fill="none" x1="416.0049384023596" x2="446.98990619421056" y1="254.73712044950423" y2="272.62682471731654" />
      <line clip-path="url(#clipPath2)" fill="none" x1="446.98990619421056" x2="459.06940784085884" y1="272.62682471731654" y2="265.65251660724255" />
      <line clip-path="url(#clipPath2)" fill="none" x1="446.98990619421056" x2="457.45933445675576" y1="265.19032337378667" y2="259.145618834211" />
      <line clip-path="url(#clipPath2)" fill="none" x1="459.06940784085884" x2="471.1489094875071" y1="265.65251660724255" y2="258.6782084971685" stroke="rgb(51,51,153)" />
      <line clip-path="url(#clipPath2)" fill="none" x1="457.45933445675576" x2="467.9287627193009" y1="259.145618834211" y2="253.10091429463532" stroke="rgb(51,51,153)" />
      <line clip-path="url(#clipPath2)" fill="none" x1="477.9748739860616" x2="477.9748739860616" y1="246.85511776395737" y2="232.9064148389184" stroke="rgb(51,51,153)" />
      <line clip-path="url(#clipPath2)" fill="none" x1="477.9748739860616" x2="477.9748739860616" y1="232.9064148389184" y2="218.95771191387945" />
      <line clip-path="url(#clipPath2)" fill="none" x1="446.98990619421056" x2="477.9748739860616" y1="201.0680076460671" y2="218.95771191387945" />
      <line clip-path="url(#clipPath2)" fill="none" x1="446.98990619421056" x2="471.53472213766554" y1="208.50450898959693" y2="222.67588078143004" />
      <line clip-path="url(#clipPath2)" fill="none" x1="446.98990619421056" x2="446.98990619421056" y1="272.62682471731654" y2="286.57513406453216" />
      <line clip-path="url(#clipPath2)" fill="none" x1="446.98990619421056" x2="446.98990619421056" y1="286.57513406453216" y2="300.5234434117478" stroke="rgb(51,51,153)" />
      <line clip-path="url(#clipPath2)" fill="none" x1="484.8008885444424" x2="496.88047877897503" y1="258.6781217922777" y2="265.6522764658855" stroke="rgb(51,51,153)" />
      <line clip-path="url(#clipPath2)" fill="none" x1="496.88047877897503" x2="508.9600690135077" y1="265.6522764658855" y2="272.6264311394933" />
      <line clip-path="url(#clipPath2)" fill="none" x1="508.9600690135077" x2="539.9452640409538" y1="272.62643113949326" y2="254.73712044950423" />
      <line clip-path="url(#clipPath2)" fill="none" x1="539.9452640409538" x2="552.0248542754864" y1="254.73712044950423" y2="261.71127512311205" />
      <line clip-path="url(#clipPath2)" fill="none" x1="552.0248542754864" x2="564.104444510019" y1="261.71127512311205" y2="268.68542979671986" stroke="red" />
      <line clip-path="url(#clipPath2)" fill="none" x1="462.3235975262893" x2="431.33862973443826" y1="46.772777391061936" y2="64.66248165887419" />
      <line clip-path="url(#clipPath2)" fill="none" x1="431.33862973443826" x2="431.33862973443826" y1="64.66248165887419" y2="100.44189019449902" />
      <line clip-path="url(#clipPath2)" fill="none" x1="431.33862973443826" x2="462.3235975262893" y1="100.44189019449902" y2="118.33159446231127" />
      <line clip-path="url(#clipPath2)" fill="none" x1="462.3235975262893" x2="493.30856531814027" y1="118.33159446231127" y2="100.44189019449902" />
      <line clip-path="url(#clipPath2)" fill="none" x1="493.30856531814027" x2="493.30856531814027" y1="100.44189019449902" y2="64.66248165887419" />
      <line clip-path="url(#clipPath2)" fill="none" x1="462.3235975262893" x2="493.30856531814027" y1="46.772777391061936" y2="64.66248165887419" />
      <path stroke-linecap="square" clip-path="url(#clipPath2)" stroke-linejoin="miter" d="M492.93682861328125 64.01863098144531 L493.6802978515625 65.30633544921875 L518.8989868164062 53.19314956665039 L516.0366821289062 48.23550033569336" stroke="none" stroke-width="1" />
      <line clip-path="url(#clipPath2)" fill="none" x1="518.9937982325038" x2="516.1209328451306" y1="111.95372528942082" y2="116.92974708771865" />
      <line clip-path="url(#clipPath2)" fill="none" x1="515.3244792447376" x2="512.8620231984178" y1="110.3091774187177" y2="114.57433896011585" />
      <line clip-path="url(#clipPath2)" fill="none" x1="511.6551602569714" x2="509.60311355170484" y1="108.66462954801459" y2="112.21893083251304" />
      <line clip-path="url(#clipPath2)" fill="none" x1="507.98584126920514" x2="506.3442039049919" y1="107.02008167731147" y2="109.86352270491024" />
      <line clip-path="url(#clipPath2)" fill="none" x1="504.31652228143895" x2="503.085294258279" y1="105.37553380660837" y2="107.50811457730744" />
      <line clip-path="url(#clipPath2)" fill="none" x1="500.6472032936727" x2="499.8263846115661" y1="103.73098593590525" y2="105.15270644970464" />
      <line clip-path="url(#clipPath2)" fill="none" x1="496.9778843059065" x2="496.5674749648532" y1="102.08643806520215" y2="102.79729832210182" />
      <line clip-path="url(#clipPath2)" fill="none" x1="493.30856531814027" x2="493.30856531814027" y1="100.44189019449902" y2="100.44189019449902" />
      <line clip-path="url(#clipPath2)" fill="none" x1="518.9937982325038" x2="516.1209328451306" y1="111.95372528942082" y2="116.92974708771865" />
      <line clip-path="url(#clipPath2)" fill="none" x1="515.3244792447376" x2="512.8620231984178" y1="110.3091774187177" y2="114.57433896011585" />
      <line clip-path="url(#clipPath2)" fill="none" x1="511.6551602569714" x2="509.60311355170484" y1="108.66462954801459" y2="112.21893083251304" />
      <line clip-path="url(#clipPath2)" fill="none" x1="507.98584126920514" x2="506.3442039049919" y1="107.02008167731147" y2="109.86352270491024" />
      <line clip-path="url(#clipPath2)" fill="none" x1="504.31652228143895" x2="503.085294258279" y1="105.37553380660837" y2="107.50811457730744" />
      <line clip-path="url(#clipPath2)" fill="none" x1="500.6472032936727" x2="499.8263846115661" y1="103.73098593590525" y2="105.15270644970464" />
      <line clip-path="url(#clipPath2)" fill="none" x1="496.9778843059065" x2="496.5674749648532" y1="102.08643806520215" y2="102.79729832210182" />
      <line clip-path="url(#clipPath2)" fill="none" x1="493.30856531814027" x2="493.30856531814027" y1="100.44189019449902" y2="100.44189019449902" />
    </g>
  </g>
</svg>
